<svg width="98" height="46" viewBox="0 0 98 46" fill="none" xmlns="http://www.w3.org/2000/svg">
<path d="M21.1573 26.624C20.7773 26.624 20.4573 26.6007 20.1973 26.554C19.9439 26.5073 19.7373 26.4273 19.5773 26.314C19.4173 26.194 19.2939 26.034 19.2073 25.834C19.1273 25.634 19.0706 25.384 19.0373 25.084C19.0106 24.784 18.9973 24.424 18.9973 24.004C18.9973 23.504 19.0139 23.0873 19.0473 22.754C19.0806 22.414 19.1639 22.144 19.2973 21.944C19.4306 21.7373 19.6473 21.5907 19.9473 21.504C20.2473 21.4107 20.6606 21.364 21.1873 21.364C21.5539 21.364 21.8539 21.3907 22.0873 21.444C22.3273 21.4973 22.5139 21.584 22.6473 21.704C22.7873 21.8173 22.8906 21.9773 22.9573 22.184C23.0239 22.384 23.0673 22.634 23.0873 22.934C23.1073 23.2273 23.1173 23.5773 23.1173 23.984V24.114H19.3473C19.3473 24.554 19.3673 24.9173 19.4073 25.204C19.4473 25.4907 19.5273 25.714 19.6473 25.874C19.7673 26.034 19.9506 26.1473 20.1973 26.214C20.4506 26.274 20.7873 26.304 21.2073 26.304C21.3873 26.304 21.5806 26.2973 21.7873 26.284C21.9939 26.2707 22.1939 26.254 22.3873 26.234C22.5873 26.214 22.7639 26.1907 22.9173 26.164V26.494C22.7906 26.5207 22.6273 26.544 22.4273 26.564C22.2339 26.584 22.0273 26.5973 21.8073 26.604C21.5873 26.6173 21.3706 26.624 21.1573 26.624ZM22.7673 23.994V23.584C22.7673 23.1573 22.7406 22.8173 22.6873 22.564C22.6406 22.3107 22.5573 22.1207 22.4373 21.994C22.3173 21.8673 22.1506 21.784 21.9373 21.744C21.7306 21.704 21.4706 21.684 21.1573 21.684C20.7506 21.684 20.4239 21.7107 20.1773 21.764C19.9373 21.8107 19.7573 21.9073 19.6373 22.054C19.5173 22.2007 19.4373 22.414 19.3973 22.694C19.3639 22.9673 19.3473 23.334 19.3473 23.794H22.9673L22.7673 23.994ZM20.5573 20.484V20.434L21.6273 19.104H22.0873V19.154L20.8273 20.484H20.5573ZM26.2925 26.544L24.2125 21.444H24.5925L26.4425 26.054H26.5025L28.3525 21.444H28.7225L26.6425 26.544H26.2925ZM31.8897 26.624C31.5097 26.624 31.1897 26.6007 30.9297 26.554C30.6763 26.5073 30.4697 26.4273 30.3097 26.314C30.1497 26.194 30.0263 26.034 29.9397 25.834C29.8597 25.634 29.803 25.384 29.7697 25.084C29.743 24.784 29.7297 24.424 29.7297 24.004C29.7297 23.504 29.7463 23.0873 29.7797 22.754C29.813 22.414 29.8963 22.144 30.0297 21.944C30.163 21.7373 30.3797 21.5907 30.6797 21.504C30.9797 21.4107 31.393 21.364 31.9197 21.364C32.2863 21.364 32.5863 21.3907 32.8197 21.444C33.0597 21.4973 33.2463 21.584 33.3797 21.704C33.5197 21.8173 33.623 21.9773 33.6897 22.184C33.7563 22.384 33.7997 22.634 33.8197 22.934C33.8397 23.2273 33.8497 23.5773 33.8497 23.984V24.114H30.0797C30.0797 24.554 30.0997 24.9173 30.1397 25.204C30.1797 25.4907 30.2597 25.714 30.3797 25.874C30.4997 26.034 30.683 26.1473 30.9297 26.214C31.183 26.274 31.5197 26.304 31.9397 26.304C32.1197 26.304 32.313 26.2973 32.5197 26.284C32.7263 26.2707 32.9263 26.254 33.1197 26.234C33.3197 26.214 33.4963 26.1907 33.6497 26.164V26.494C33.523 26.5207 33.3597 26.544 33.1597 26.564C32.9663 26.584 32.7597 26.5973 32.5397 26.604C32.3197 26.6173 32.103 26.624 31.8897 26.624ZM33.4997 23.994V23.584C33.4997 23.1573 33.473 22.8173 33.4197 22.564C33.373 22.3107 33.2897 22.1207 33.1697 21.994C33.0497 21.8673 32.883 21.784 32.6697 21.744C32.463 21.704 32.203 21.684 31.8897 21.684C31.483 21.684 31.1563 21.7107 30.9097 21.764C30.6697 21.8107 30.4897 21.9073 30.3697 22.054C30.2497 22.2007 30.1697 22.414 30.1297 22.694C30.0963 22.9673 30.0797 23.334 30.0797 23.794H33.6997L33.4997 23.994ZM31.2897 20.484V20.434L32.3597 19.104H32.8197V19.154L31.5597 20.484H31.2897ZM35.5949 26.544V21.444H35.8749L35.9049 22.274H35.9449C35.9982 22.114 36.0849 21.9673 36.2049 21.834C36.3249 21.694 36.5082 21.5807 36.7549 21.494C37.0016 21.4073 37.3382 21.364 37.7649 21.364C38.1716 21.364 38.4982 21.4007 38.7449 21.474C38.9916 21.5473 39.1782 21.6607 39.3049 21.814C39.4382 21.9673 39.5249 22.1707 39.5649 22.424C39.6116 22.6773 39.6349 22.984 39.6349 23.344V26.544H39.2849V23.394C39.2849 23.0207 39.2649 22.724 39.2249 22.504C39.1849 22.2773 39.1082 22.104 38.9949 21.984C38.8816 21.864 38.7182 21.784 38.5049 21.744C38.2982 21.704 38.0282 21.684 37.6949 21.684C37.2549 21.684 36.9149 21.7407 36.6749 21.854C36.4349 21.9673 36.2616 22.1273 36.1549 22.334C36.0549 22.534 35.9949 22.7707 35.9749 23.044C35.9549 23.3107 35.9449 23.5973 35.9449 23.904V26.544H35.5949ZM43.5401 26.624C43.1601 26.624 42.8401 26.6007 42.5801 26.554C42.3267 26.5073 42.1201 26.4273 41.9601 26.314C41.8001 26.194 41.6767 26.034 41.5901 25.834C41.5101 25.634 41.4534 25.384 41.4201 25.084C41.3934 24.784 41.3801 24.424 41.3801 24.004C41.3801 23.504 41.3967 23.0873 41.4301 22.754C41.4634 22.414 41.5467 22.144 41.6801 21.944C41.8134 21.7373 42.0301 21.5907 42.3301 21.504C42.6301 21.4107 43.0434 21.364 43.5701 21.364C43.9367 21.364 44.2367 21.3907 44.4701 21.444C44.7101 21.4973 44.8967 21.584 45.0301 21.704C45.1701 21.8173 45.2734 21.9773 45.3401 22.184C45.4067 22.384 45.4501 22.634 45.4701 22.934C45.4901 23.2273 45.5001 23.5773 45.5001 23.984V24.114H41.7301C41.7301 24.554 41.7501 24.9173 41.7901 25.204C41.8301 25.4907 41.9101 25.714 42.0301 25.874C42.1501 26.034 42.3334 26.1473 42.5801 26.214C42.8334 26.274 43.1701 26.304 43.5901 26.304C43.7701 26.304 43.9634 26.2973 44.1701 26.284C44.3767 26.2707 44.5767 26.254 44.7701 26.234C44.9701 26.214 45.1467 26.1907 45.3001 26.164V26.494C45.1734 26.5207 45.0101 26.544 44.8101 26.564C44.6167 26.584 44.4101 26.5973 44.1901 26.604C43.9701 26.6173 43.7534 26.624 43.5401 26.624ZM45.1501 23.994V23.584C45.1501 23.1573 45.1234 22.8173 45.0701 22.564C45.0234 22.3107 44.9401 22.1207 44.8201 21.994C44.7001 21.8673 44.5334 21.784 44.3201 21.744C44.1134 21.704 43.8534 21.684 43.5401 21.684C43.1334 21.684 42.8067 21.7107 42.5601 21.764C42.3201 21.8107 42.1401 21.9073 42.0201 22.054C41.9001 22.2007 41.8201 22.414 41.7801 22.694C41.7467 22.9673 41.7301 23.334 41.7301 23.794H45.3501L45.1501 23.994ZM47.2453 26.544V21.444H47.5253L47.5553 22.274H47.5953C47.642 22.114 47.7186 21.9673 47.8253 21.834C47.932 21.694 48.0953 21.5807 48.3153 21.494C48.5353 21.4073 48.8353 21.364 49.2153 21.364C49.7153 21.364 50.082 21.434 50.3153 21.574C50.5553 21.714 50.7153 21.9473 50.7953 22.274H50.8453C50.892 22.114 50.972 21.9673 51.0853 21.834C51.1986 21.694 51.3686 21.5807 51.5953 21.494C51.822 21.4073 52.1253 21.364 52.5053 21.364C52.9853 21.364 53.3453 21.4307 53.5853 21.564C53.8253 21.6907 53.982 21.9007 54.0553 22.194C54.1353 22.4807 54.1753 22.864 54.1753 23.344V26.544H53.8253V23.394C53.8253 23.0207 53.8086 22.724 53.7753 22.504C53.742 22.2773 53.6753 22.104 53.5753 21.984C53.482 21.864 53.342 21.784 53.1553 21.744C52.9753 21.704 52.7353 21.684 52.4353 21.684C52.0486 21.684 51.7486 21.7373 51.5353 21.844C51.322 21.944 51.1686 22.094 51.0753 22.294C50.9886 22.4873 50.9353 22.7207 50.9153 22.994C50.8953 23.2673 50.8853 23.5707 50.8853 23.904V26.544H50.5353V23.394C50.5353 23.0207 50.5186 22.724 50.4853 22.504C50.452 22.2773 50.3853 22.104 50.2853 21.984C50.192 21.864 50.052 21.784 49.8653 21.744C49.6853 21.704 49.4453 21.684 49.1453 21.684C48.7586 21.684 48.4586 21.7407 48.2453 21.854C48.032 21.9673 47.8786 22.1273 47.7853 22.334C47.6986 22.534 47.6453 22.7707 47.6253 23.044C47.6053 23.3107 47.5953 23.5973 47.5953 23.904V26.544H47.2453ZM58.0811 26.624C57.7011 26.624 57.3811 26.6007 57.1211 26.554C56.8677 26.5073 56.6611 26.4273 56.5011 26.314C56.3411 26.194 56.2177 26.034 56.1311 25.834C56.0511 25.634 55.9944 25.384 55.9611 25.084C55.9344 24.784 55.9211 24.424 55.9211 24.004C55.9211 23.504 55.9377 23.0873 55.9711 22.754C56.0044 22.414 56.0877 22.144 56.2211 21.944C56.3544 21.7373 56.5711 21.5907 56.8711 21.504C57.1711 21.4107 57.5844 21.364 58.1111 21.364C58.4777 21.364 58.7777 21.3907 59.0111 21.444C59.2511 21.4973 59.4377 21.584 59.5711 21.704C59.7111 21.8173 59.8144 21.9773 59.8811 22.184C59.9477 22.384 59.9911 22.634 60.0111 22.934C60.0311 23.2273 60.0411 23.5773 60.0411 23.984V24.114H56.2711C56.2711 24.554 56.2911 24.9173 56.3311 25.204C56.3711 25.4907 56.4511 25.714 56.5711 25.874C56.6911 26.034 56.8744 26.1473 57.1211 26.214C57.3744 26.274 57.7111 26.304 58.1311 26.304C58.3111 26.304 58.5044 26.2973 58.7111 26.284C58.9177 26.2707 59.1177 26.254 59.3111 26.234C59.5111 26.214 59.6877 26.1907 59.8411 26.164V26.494C59.7144 26.5207 59.5511 26.544 59.3511 26.564C59.1577 26.584 58.9511 26.5973 58.7311 26.604C58.5111 26.6173 58.2944 26.624 58.0811 26.624ZM59.6911 23.994V23.584C59.6911 23.1573 59.6644 22.8173 59.6111 22.564C59.5644 22.3107 59.4811 22.1207 59.3611 21.994C59.2411 21.8673 59.0744 21.784 58.8611 21.744C58.6544 21.704 58.3944 21.684 58.0811 21.684C57.6744 21.684 57.3477 21.7107 57.1011 21.764C56.8611 21.8107 56.6811 21.9073 56.5611 22.054C56.4411 22.2007 56.3611 22.414 56.3211 22.694C56.2877 22.9673 56.2711 23.334 56.2711 23.794H59.8911L59.6911 23.994ZM61.7863 26.544V21.444H62.0663L62.0963 22.274H62.1363C62.1896 22.114 62.2763 21.9673 62.3963 21.834C62.5163 21.694 62.6996 21.5807 62.9463 21.494C63.193 21.4073 63.5296 21.364 63.9563 21.364C64.363 21.364 64.6896 21.4007 64.9363 21.474C65.183 21.5473 65.3696 21.6607 65.4963 21.814C65.6296 21.9673 65.7163 22.1707 65.7563 22.424C65.803 22.6773 65.8263 22.984 65.8263 23.344V26.544H65.4763V23.394C65.4763 23.0207 65.4563 22.724 65.4163 22.504C65.3763 22.2773 65.2996 22.104 65.1863 21.984C65.073 21.864 64.9096 21.784 64.6963 21.744C64.4896 21.704 64.2196 21.684 63.8863 21.684C63.4463 21.684 63.1063 21.7407 62.8663 21.854C62.6263 21.9673 62.453 22.1273 62.3463 22.334C62.2463 22.534 62.1863 22.7707 62.1663 23.044C62.1463 23.3107 62.1363 23.5973 62.1363 23.904V26.544H61.7863ZM68.2015 26.544V21.764H67.1215V21.444H68.2015V19.964H68.5515V21.444H69.8115V21.764H68.5515V26.544H68.2015ZM71.0725 19.724V19.114H71.5025V19.724H71.0725ZM71.1125 26.544V21.444H71.4625V26.544H71.1125ZM75.376 26.624C74.996 26.624 74.676 26.6007 74.416 26.554C74.1627 26.5073 73.956 26.4273 73.796 26.314C73.636 26.194 73.5127 26.034 73.426 25.834C73.346 25.634 73.2893 25.384 73.256 25.084C73.2293 24.784 73.216 24.424 73.216 24.004C73.216 23.504 73.2327 23.0873 73.266 22.754C73.2993 22.414 73.3827 22.144 73.516 21.944C73.6493 21.7373 73.866 21.5907 74.166 21.504C74.466 21.4107 74.8793 21.364 75.406 21.364C75.7727 21.364 76.0727 21.3907 76.306 21.444C76.546 21.4973 76.7327 21.584 76.866 21.704C77.006 21.8173 77.1093 21.9773 77.176 22.184C77.2427 22.384 77.286 22.634 77.306 22.934C77.326 23.2273 77.336 23.5773 77.336 23.984V24.114H73.566C73.566 24.554 73.586 24.9173 73.626 25.204C73.666 25.4907 73.746 25.714 73.866 25.874C73.986 26.034 74.1693 26.1473 74.416 26.214C74.6693 26.274 75.006 26.304 75.426 26.304C75.606 26.304 75.7993 26.2973 76.006 26.284C76.2127 26.2707 76.4127 26.254 76.606 26.234C76.806 26.214 76.9827 26.1907 77.136 26.164V26.494C77.0093 26.5207 76.846 26.544 76.646 26.564C76.4527 26.584 76.246 26.5973 76.026 26.604C75.806 26.6173 75.5893 26.624 75.376 26.624ZM76.986 23.994V23.584C76.986 23.1573 76.9593 22.8173 76.906 22.564C76.8593 22.3107 76.776 22.1207 76.656 21.994C76.536 21.8673 76.3693 21.784 76.156 21.744C75.9493 21.704 75.6893 21.684 75.376 21.684C74.9693 21.684 74.6427 21.7107 74.396 21.764C74.156 21.8107 73.976 21.9073 73.856 22.054C73.736 22.2007 73.656 22.414 73.616 22.694C73.5827 22.9673 73.566 23.334 73.566 23.794H77.186L76.986 23.994ZM79.0812 26.544V19.114H79.4312V26.544H79.0812Z" fill="black"/>
<path fill-rule="evenodd" clip-rule="evenodd" d="M0 0.512001V44.544H3.904V7.424H4.16L20.672 44.544H23.808L30.0597 30.544H25.856L22.528 38.016H22.208L5.504 0.512001H0ZM31.6461 17.544H35.8649L40.384 7.424H40.64V17.544H44.608V0.512001H39.232L31.6461 17.544ZM44.608 30.544H40.64V44.544H44.608V30.544Z" fill="black"/>
<path fill-rule="evenodd" clip-rule="evenodd" d="M75.332 44.544C77.508 44.8853 80.1533 45.056 83.268 45.056C84.5907 45.056 86.0627 44.992 87.684 44.864C89.348 44.7787 91.012 44.6507 92.676 44.48C94.3827 44.2667 95.94 44.032 97.348 43.776V20.864H82.052V25.536H92.036V39.872C91.3533 39.9573 90.5 40.0427 89.476 40.128C88.452 40.2133 87.4067 40.2773 86.34 40.32C85.2733 40.3627 84.292 40.384 83.396 40.384C81.0493 40.384 79.0653 40.2773 77.444 40.064C75.8653 39.808 74.5853 39.3173 73.604 38.592C72.6653 37.8667 71.9187 36.8427 71.364 35.52C70.8638 34.2278 70.5265 32.5692 70.3521 30.544H64.8674C64.915 31.1162 64.9686 31.6655 65.028 32.192C65.3693 34.7947 65.924 36.9493 66.692 38.656C67.5027 40.32 68.5907 41.6213 69.956 42.56C71.364 43.4987 73.156 44.16 75.332 44.544ZM64.6801 17.544C64.7545 15.8392 64.8705 14.3005 65.028 12.928C65.3693 10.2827 65.9453 8.128 66.756 6.464C67.5667 4.75733 68.676 3.43467 70.084 2.496C71.492 1.55733 73.2627 0.917334 75.396 0.576C77.572 0.192 80.196 0 83.268 0C84.7187 0 86.276 0.0640005 87.94 0.192001C89.604 0.32 91.2253 0.469332 92.804 0.639999C94.4253 0.810666 95.876 1.024 97.156 1.28V5.76C95.7907 5.54667 94.404 5.376 92.996 5.248C91.588 5.07733 90.2653 4.94933 89.028 4.864C87.8333 4.77867 86.8093 4.736 85.956 4.736C83.3107 4.736 81.0493 4.8 79.172 4.928C77.3373 5.056 75.8227 5.39733 74.628 5.952C73.4333 6.50667 72.516 7.424 71.876 8.704C71.236 9.94133 70.7667 11.6693 70.468 13.888C70.345 14.954 70.2516 16.1727 70.1877 17.544H64.6801Z" fill="#F76800"/>
</svg>
