<svg width="87" height="46" viewBox="0 0 87 46" fill="none" xmlns="http://www.w3.org/2000/svg">
<path d="M0 44.544V0.512001H5.504L22.208 38.016H22.528L39.232 0.512001H44.608V44.544H40.64V7.424H40.384L23.808 44.544H20.672L4.16 7.424H3.904V44.544H0Z" fill="black"/>
<path d="M72.268 45.056C69.1534 45.056 66.508 44.8853 64.332 44.544C62.156 44.16 60.364 43.4987 58.956 42.56C57.5907 41.6213 56.5027 40.32 55.692 38.656C54.924 36.9493 54.3694 34.7947 54.028 32.192C53.7294 29.5467 53.58 26.3253 53.58 22.528C53.58 18.7307 53.7294 15.5307 54.028 12.928C54.3694 10.2827 54.9454 8.128 55.756 6.464C56.5667 4.75733 57.676 3.43467 59.084 2.496C60.492 1.55733 62.2627 0.917334 64.396 0.576C66.572 0.192 69.196 0 72.268 0C73.7187 0 75.276 0.0640004 76.94 0.192001C78.604 0.32 80.2254 0.469332 81.804 0.639999C83.4254 0.810666 84.876 1.024 86.156 1.28V5.76C84.7907 5.54667 83.404 5.376 81.996 5.248C80.588 5.07733 79.2654 4.94933 78.028 4.864C76.8334 4.77867 75.8094 4.736 74.956 4.736C72.3107 4.736 70.0494 4.8 68.172 4.928C66.3374 5.056 64.8227 5.39733 63.628 5.952C62.4334 6.50667 61.516 7.424 60.876 8.704C60.236 9.94134 59.7667 11.6693 59.468 13.888C59.212 16.1067 59.084 18.9867 59.084 22.528C59.084 25.6427 59.1694 28.2667 59.34 30.4C59.5107 32.4907 59.852 34.1973 60.364 35.52C60.9187 36.8427 61.6654 37.8667 62.604 38.592C63.5854 39.3173 64.8654 39.808 66.444 40.064C68.0654 40.2773 70.0494 40.384 72.396 40.384C73.292 40.384 74.2734 40.3627 75.34 40.32C76.4067 40.2773 77.452 40.2133 78.476 40.128C79.5 40.0427 80.3534 39.9573 81.036 39.872V25.536H71.052V20.864H86.348V43.776C84.94 44.032 83.3827 44.2667 81.676 44.48C80.012 44.6507 78.348 44.7787 76.684 44.864C75.0627 44.992 73.5907 45.056 72.268 45.056Z" fill="#ADFA1D"/>
</svg>
